# xmcd
#
# Track frame offsets:
#  150
#  21150
#  39063
#  60072
#  79686
#  96340
#  115405
#  133426
#  147906
#  169326
#
# Disc length: 2559 seconds
#
# Revision: 2
# Processed by: cddbd v1.5.1PL0 Copyright (c) Steve Scherf et al.
# Submitted via: AltoMP3_Maker 3.0
#
DISCID=8109fd0a
DTITLE=eva cassidy - songbird
DYEAR=1900
DGENRE=
TTITLE0=Fielss of Gold
TTITLE1=Wade in the Water
TTITLE2=Autum Leaves
TTITLE3=Wayfaring Stranger
TTITLE4=Songbird
TTITLE5=Time is a Healer
TTITLE6=I know you by heart
TTITLE7=People Get Ready
TTITLE8=Oh, Had I a Golden Thread
TTITLE9=Over the Ranbow
EXTD=
EXTT0=
EXTT1=
EXTT2=
EXTT3=
EXTT4=
EXTT5=
EXTT6=
EXTT7=
EXTT8=
EXTT9=
PLAYORDER=
